<svg id="Layer_1" data-name="Layer 1" xmlns="http://www.w3.org/2000/svg" viewBox="0 0 535 103"><defs><style>.cls-1{fill:#3a459a;}.cls-2{fill:#e7a83b;}.cls-3{fill:#999;}</style></defs><path class="cls-1" d="M80.3,2.13c-13,6.62-42.67,27.94-68.91,62.68C3.82,38.06,26.22,12.39,53.64,16c4.61-3.79,9.29-7.41,13.74-10.67a50.9,50.9,0,0,0-5.33,2.16C16.56-5.61-19,47.84,10.58,84.76,25.85,52.48,52.17,24,80.3,2.13Z"/><path class="cls-1" d="M87.69,25.25c.92-1.55,1.86-3.1,2.84-4.67A82.6,82.6,0,0,0,80.09,31.93c18.56,26-1,62.29-33.06,61C51.63,60.6,71.83,32.71,94.38,7,76.87,20.77,40.8,58.63,34.89,101.07,79.72,114.23,115.38,62.42,87.69,25.25Z"/><path class="cls-2" d="M92.29.19C71.53,13,35.19,46.45,16.09,90.59a49,49,0,0,0,10.06,7C38.26,63.07,61,28.46,92.29.19Z"/><rect class="cls-2" x="118.88" y="18.77" width="8.11" height="6.77"/><rect class="cls-1" x="118.88" y="30.77" width="8.11" height="21.6"/><path class="cls-1" d="M134.19,18.77h8.11L162.94,42.2V18.77H171V52.38h-8.07L142.3,29V52.38h-8.11Z"/><path class="cls-1" d="M208.16,18.77v6.77H186.31v8.35h18.58v6.77H186.31V52.38H178.2V18.77Z"/><path class="cls-1" d="M229.28,53.48c-8.84,0-19.16-5.91-19.16-17.91s10.32-17.9,19.16-17.9,19.1,5.9,19.1,17.9S238.06,53.48,229.28,53.48Zm0-28.13c-5,0-10.9,3.36-10.9,10.22s5.86,10.18,10.9,10.18,10.84-3.31,10.84-10.18S234.27,25.35,229.28,25.35Z"/><path class="cls-1" d="M254.71,18.77H275c7.39,0,11,5.24,11,10.52a10.15,10.15,0,0,1-6.77,9.79l10.37,13.3H279.44l-8.89-12.63h-7.72V52.38h-8.12ZM262.83,33H273c3.08,0,4.61-1.87,4.61-3.74s-1.53-3.75-4.61-3.75H262.83Z"/><path class="cls-2" d="M294.6,18.77h8.11l13,22.66,13-22.66h8.11V52.38h-8.11v-20l-11.52,20h-3l-11.48-20v20H294.6Z"/><path class="cls-2" d="M358.35,18.29h8.2l16.23,34.09h-8.59l-2.35-4.9H353l-2.35,4.9h-8.6Zm-2.07,22.42h12.29l-6.14-12.82Z"/><path class="cls-2" d="M418.25,18.77v6.72H403.56V52.38h-8.11V25.45H380.76V18.77Z"/><path class="cls-2" d="M423.15,18.77H443.4c7.4,0,11,5.24,11,10.52a10.16,10.16,0,0,1-6.76,9.79L458,52.38H447.87L439,39.75h-7.73V52.38h-8.11ZM431.26,33h10.17c3.08,0,4.61-1.87,4.61-3.74s-1.53-3.75-4.61-3.75H431.26Z"/><path class="cls-2" d="M463,18.77h8.12V52.38H463Z"/><path class="cls-2" d="M486.46,52.38H476l10.18-12.92,5.09,6.34Zm16.61,0L477.24,18.77h9.6l7.92,10,7.92-10h9.56L499.75,35.05l13.73,17.33Z"/><path class="cls-3" d="M119,68h2.19V83.31H119Z"/><path class="cls-3" d="M133.2,69.89H128V68h12.67v1.9h-5.25V83.31H133.2Z"/><path class="cls-3" d="M160.35,82.46a7.51,7.51,0,0,1-2.9-2.8,8.2,8.2,0,0,1,0-8,7.47,7.47,0,0,1,2.91-2.8,8.52,8.52,0,0,1,4.16-1,8.67,8.67,0,0,1,3.28.6,6.72,6.72,0,0,1,2.54,1.79l-1.42,1.38a5.67,5.67,0,0,0-4.31-1.82,6.16,6.16,0,0,0-3.09.77,5.45,5.45,0,0,0-2.15,2.11,6.18,6.18,0,0,0,0,6,5.48,5.48,0,0,0,2.15,2.12,6.26,6.26,0,0,0,3.09.76,5.72,5.72,0,0,0,4.31-1.84l1.42,1.38a6.81,6.81,0,0,1-2.55,1.8,8.6,8.6,0,0,1-3.29.61A8.45,8.45,0,0,1,160.35,82.46Z"/><path class="cls-3" d="M178.92,82.67a5.55,5.55,0,0,1-2.16-2.11,6.45,6.45,0,0,1,0-6.11,5.59,5.59,0,0,1,2.16-2.1A6.39,6.39,0,0,1,182,71.6a6.31,6.31,0,0,1,3.09.75,5.56,5.56,0,0,1,2.15,2.1,6.37,6.37,0,0,1,0,6.11,5.52,5.52,0,0,1-2.15,2.11,6.21,6.21,0,0,1-3.09.77A6.29,6.29,0,0,1,178.92,82.67ZM184,81.08a3.64,3.64,0,0,0,1.39-1.44,4.81,4.81,0,0,0,0-4.27A3.55,3.55,0,0,0,184,73.94a4.27,4.27,0,0,0-4,0,3.64,3.64,0,0,0-1.4,1.43,4.72,4.72,0,0,0,0,4.27,3.73,3.73,0,0,0,1.4,1.44,4.13,4.13,0,0,0,4,0Z"/><path class="cls-3" d="M205,72.88a5,5,0,0,1,1.3,3.75v6.68h-2.1V76.87a3.57,3.57,0,0,0-.81-2.54,3,3,0,0,0-2.32-.85,3.62,3.62,0,0,0-2.69,1,3.9,3.9,0,0,0-1,2.86v6h-2.1V71.71h2v1.75a4,4,0,0,1,1.71-1.38,6.08,6.08,0,0,1,2.47-.48A4.77,4.77,0,0,1,205,72.88Z"/><path class="cls-3" d="M215.2,83.05a5.93,5.93,0,0,1-2-1l.87-1.66a6.41,6.41,0,0,0,1.86.87,7.64,7.64,0,0,0,2.21.33c1.84,0,2.76-.52,2.76-1.58a1,1,0,0,0-.37-.83,2.52,2.52,0,0,0-.93-.45c-.37-.09-.9-.2-1.59-.31a16.42,16.42,0,0,1-2.29-.51,3.59,3.59,0,0,1-1.52-1,2.69,2.69,0,0,1-.63-1.9,3,3,0,0,1,1.31-2.53,5.86,5.86,0,0,1,3.53-1,9.75,9.75,0,0,1,2.32.28,6.32,6.32,0,0,1,1.9.77l-.9,1.66a6.05,6.05,0,0,0-3.35-.92,3.87,3.87,0,0,0-2,.44,1.31,1.31,0,0,0-.7,1.16,1.12,1.12,0,0,0,.39.9,2.43,2.43,0,0,0,1,.48c.38.1.93.22,1.63.35a18.33,18.33,0,0,1,2.26.51,3.52,3.52,0,0,1,1.48.93A2.59,2.59,0,0,1,223,80a2.92,2.92,0,0,1-1.34,2.51,6.37,6.37,0,0,1-3.67.93A9.6,9.6,0,0,1,215.2,83.05Z"/><path class="cls-3" d="M240.77,71.71v11.6h-2V81.55a4.13,4.13,0,0,1-1.67,1.39,5.21,5.21,0,0,1-2.27.5,5.07,5.07,0,0,1-3.65-1.28,5,5,0,0,1-1.33-3.78V71.71H232v6.43a3.61,3.61,0,0,0,.81,2.55,3,3,0,0,0,2.32.86,3.46,3.46,0,0,0,2.62-1,4,4,0,0,0,1-2.85v-6Z"/><path class="cls-3" d="M249.15,67.07h2.1V83.31h-2.1Z"/><path class="cls-3" d="M266.43,82.63a3.12,3.12,0,0,1-1.13.6,4.75,4.75,0,0,1-1.4.21,3.76,3.76,0,0,1-2.72-.94,3.62,3.62,0,0,1-1-2.7V73.44h-2V71.71h2V69.17h2.1v2.54h3.33v1.73h-3.33v6.28a2,2,0,0,0,.47,1.44,1.73,1.73,0,0,0,1.35.5,2.55,2.55,0,0,0,1.64-.54Z"/><path class="cls-3" d="M273.38,69.08a1.28,1.28,0,0,1-.4-1,1.34,1.34,0,0,1,.4-1,1.38,1.38,0,0,1,1-.4,1.45,1.45,0,0,1,1,.38,1.25,1.25,0,0,1,.4.95,1.35,1.35,0,0,1-.4,1,1.38,1.38,0,0,1-1,.4A1.41,1.41,0,0,1,273.38,69.08Zm0,2.63h2.1v11.6h-2.1Z"/><path class="cls-3" d="M293.54,72.88a5,5,0,0,1,1.3,3.75v6.68h-2.1V76.87a3.57,3.57,0,0,0-.81-2.54,3,3,0,0,0-2.32-.85,3.62,3.62,0,0,0-2.69,1,3.9,3.9,0,0,0-1,2.86v6h-2.1V71.71h2v1.75a4,4,0,0,1,1.72-1.38A6,6,0,0,1,290,71.6,4.77,4.77,0,0,1,293.54,72.88Z"/><path class="cls-3" d="M314.27,71.71v10a6,6,0,0,1-1.51,4.5,6.24,6.24,0,0,1-4.5,1.45,10.72,10.72,0,0,1-3.13-.45A6.07,6.07,0,0,1,302.72,86l1-1.62a5.84,5.84,0,0,0,2,1.11,7.55,7.55,0,0,0,2.46.4,4.14,4.14,0,0,0,3-1,4,4,0,0,0,1-2.93V81a4.6,4.6,0,0,1-1.82,1.35,6.65,6.65,0,0,1-5.37-.27,5.32,5.32,0,0,1-2.11-2,6,6,0,0,1,0-5.84,5.16,5.16,0,0,1,2.11-2,6.42,6.42,0,0,1,3-.7,6.14,6.14,0,0,1,2.44.48,4.43,4.43,0,0,1,1.85,1.42V71.71Zm-4,8.79a3.46,3.46,0,0,0,1.42-1.34,3.71,3.71,0,0,0,.52-2,3.56,3.56,0,0,0-1.12-2.73,4.53,4.53,0,0,0-5.75,0,3.56,3.56,0,0,0-1.12,2.73,3.79,3.79,0,0,0,.51,2,3.55,3.55,0,0,0,1.43,1.34,4.55,4.55,0,0,0,4.11,0Z"/><path class="cls-3" d="M336,82.46A7.51,7.51,0,0,1,333,79.65a8.1,8.1,0,0,1,0-8A7.51,7.51,0,0,1,336,68.83a9,9,0,0,1,8.34,0,7.47,7.47,0,0,1,2.91,2.8,8.2,8.2,0,0,1,0,8,7.47,7.47,0,0,1-2.91,2.8,9,9,0,0,1-8.34,0Zm7.21-1.69a5.63,5.63,0,0,0,2.13-2.12,6.25,6.25,0,0,0,0-6,5.6,5.6,0,0,0-2.13-2.11,5.91,5.91,0,0,0-3-.77,6,6,0,0,0-3.05.77,5.59,5.59,0,0,0-2.15,2.11,6.25,6.25,0,0,0,0,6,5.61,5.61,0,0,0,2.15,2.12,6.14,6.14,0,0,0,3.05.76A6,6,0,0,0,343.17,80.77Z"/><path class="cls-3" d="M366.49,71.71v11.6h-2V81.55a4.09,4.09,0,0,1-1.68,1.39,5.16,5.16,0,0,1-2.26.5,4.56,4.56,0,0,1-5-5.06V71.71h2.1v6.43a3.61,3.61,0,0,0,.81,2.55,3,3,0,0,0,2.32.86,3.48,3.48,0,0,0,2.63-1,4,4,0,0,0,1-2.85v-6Z"/><path class="cls-3" d="M381.39,82.63a3.12,3.12,0,0,1-1.13.6,4.75,4.75,0,0,1-1.4.21,3.76,3.76,0,0,1-2.72-.94,3.62,3.62,0,0,1-1-2.7V73.44h-2V71.71h2V69.17h2.1v2.54h3.33v1.73h-3.33v6.28a2,2,0,0,0,.47,1.44,1.73,1.73,0,0,0,1.35.5,2.55,2.55,0,0,0,1.64-.54Z"/><path class="cls-3" d="M388.9,83.05a6,6,0,0,1-2.06-1l.88-1.66a6.41,6.41,0,0,0,1.86.87,7.59,7.59,0,0,0,2.21.33c1.84,0,2.76-.52,2.76-1.58a1,1,0,0,0-.38-.83,2.38,2.38,0,0,0-.93-.45c-.37-.09-.9-.2-1.58-.31a15.78,15.78,0,0,1-2.29-.51,3.53,3.53,0,0,1-1.52-1,2.69,2.69,0,0,1-.64-1.9,3,3,0,0,1,1.32-2.53,5.83,5.83,0,0,1,3.52-1,9.68,9.68,0,0,1,2.32.28,6.21,6.21,0,0,1,1.9.77l-.89,1.66a6.07,6.07,0,0,0-3.35-.92,3.91,3.91,0,0,0-2,.44,1.33,1.33,0,0,0-.7,1.16,1.1,1.1,0,0,0,.4.9,2.39,2.39,0,0,0,1,.48c.39.1.93.22,1.63.35a18.12,18.12,0,0,1,2.27.51,3.49,3.49,0,0,1,1.47.93,2.59,2.59,0,0,1,.62,1.84,2.9,2.9,0,0,1-1.35,2.51,6.36,6.36,0,0,1-3.66.93A9.6,9.6,0,0,1,388.9,83.05Z"/><path class="cls-3" d="M405.51,82.67a5.55,5.55,0,0,1-2.16-2.11,6.45,6.45,0,0,1,0-6.11,5.59,5.59,0,0,1,2.16-2.1,6.8,6.8,0,0,1,6.21,0,5.61,5.61,0,0,1,2.14,2.1,6.37,6.37,0,0,1,0,6.11,5.56,5.56,0,0,1-2.14,2.11,6.65,6.65,0,0,1-6.21,0Zm5.11-1.59A3.64,3.64,0,0,0,412,79.64a4.81,4.81,0,0,0,0-4.27,3.55,3.55,0,0,0-1.39-1.43,4.25,4.25,0,0,0-4,0,3.57,3.57,0,0,0-1.4,1.43,4.64,4.64,0,0,0,0,4.27,3.66,3.66,0,0,0,1.4,1.44,4.11,4.11,0,0,0,4,0Z"/><path class="cls-3" d="M432.73,71.71v11.6h-2V81.55a4.13,4.13,0,0,1-1.67,1.39,5.21,5.21,0,0,1-2.27.5,5.07,5.07,0,0,1-3.65-1.28,5,5,0,0,1-1.34-3.78V71.71h2.1v6.43a3.61,3.61,0,0,0,.81,2.55,3,3,0,0,0,2.32.86,3.47,3.47,0,0,0,2.63-1,4,4,0,0,0,1-2.85v-6Z"/><path class="cls-3" d="M444.75,72.12a5.85,5.85,0,0,1,2.6-.52v2l-.48,0a3.53,3.53,0,0,0-2.68,1,4,4,0,0,0-1,2.9v5.78h-2.1V71.71h2v1.94A3.54,3.54,0,0,1,444.75,72.12Z"/><path class="cls-3" d="M456.1,82.67a5.53,5.53,0,0,1-2.18-2.11,6.3,6.3,0,0,1,0-6.11,5.58,5.58,0,0,1,2.18-2.1,6.53,6.53,0,0,1,3.16-.75,6.09,6.09,0,0,1,2.81.63A4.6,4.6,0,0,1,464,74.07l-1.6,1A3.6,3.6,0,0,0,461,73.85a3.83,3.83,0,0,0-1.79-.41,4.12,4.12,0,0,0-2.05.5,3.49,3.49,0,0,0-1.42,1.43,4.68,4.68,0,0,0,0,4.29,3.58,3.58,0,0,0,1.42,1.44,4.23,4.23,0,0,0,2.05.5,3.84,3.84,0,0,0,1.79-.42,3.52,3.52,0,0,0,1.36-1.25l1.6,1a4.69,4.69,0,0,1-1.92,1.85,6,6,0,0,1-2.81.65A6.43,6.43,0,0,1,456.1,82.67Z"/><path class="cls-3" d="M471.11,69.08a1.28,1.28,0,0,1-.41-1,1.34,1.34,0,0,1,.41-1,1.38,1.38,0,0,1,1-.4,1.42,1.42,0,0,1,1,.38,1.26,1.26,0,0,1,.41.95,1.38,1.38,0,0,1-1.42,1.4A1.41,1.41,0,0,1,471.11,69.08Zm0,2.63h2.1v11.6h-2.1Z"/><path class="cls-3" d="M491.27,72.88a5.05,5.05,0,0,1,1.3,3.75v6.68h-2.1V76.87a3.57,3.57,0,0,0-.81-2.54,3.05,3.05,0,0,0-2.32-.85,3.65,3.65,0,0,0-2.7,1,3.94,3.94,0,0,0-1,2.86v6h-2.1V71.71h2v1.75a4.13,4.13,0,0,1,1.72-1.38,6,6,0,0,1,2.46-.48A4.78,4.78,0,0,1,491.27,72.88Z"/><path class="cls-3" d="M512,71.71v10a6,6,0,0,1-1.51,4.5A6.27,6.27,0,0,1,506,87.68a10.77,10.77,0,0,1-3.13-.45,6.1,6.1,0,0,1-2.4-1.28l1-1.62a5.93,5.93,0,0,0,2,1.11,7.65,7.65,0,0,0,2.47.4,4.15,4.15,0,0,0,3-1,4,4,0,0,0,1-2.93V81a4.7,4.7,0,0,1-1.83,1.35,6.63,6.63,0,0,1-5.36-.27,5.26,5.26,0,0,1-2.11-2,5.92,5.92,0,0,1,0-5.84,5.1,5.1,0,0,1,2.11-2,6.39,6.39,0,0,1,3-.7,6.18,6.18,0,0,1,2.44.48A4.5,4.5,0,0,1,510,73.5V71.71Zm-4,8.79a3.53,3.53,0,0,0,1.42-1.34,3.79,3.79,0,0,0,.51-2,3.59,3.59,0,0,0-1.11-2.73,4.54,4.54,0,0,0-5.76,0A3.59,3.59,0,0,0,502,77.2a3.79,3.79,0,0,0,.51,2,3.53,3.53,0,0,0,1.42,1.34A4.28,4.28,0,0,0,506,81,4.23,4.23,0,0,0,508,80.5Z"/><path d="M516.25,1.72h-3.63V0h9.31V1.72h-3.64V11h-2Z"/><path d="M533.54,11l0-7.27-3.6,6H529L525.4,3.79V11h-1.94V0h1.68l4.36,7.27L533.77,0h1.68l0,11Z"/></svg>